<svg width="234" height="275" viewBox="0 0 234 275" fill="none" xmlns="http://www.w3.org/2000/svg">
<g clip-path="url(#clip0_173_447)">
<path fill-rule="evenodd" clip-rule="evenodd" d="M83.25 22.8081C83.25 19.2769 86.1428 16.3451 89.6653 16.3451C90.8777 16.3451 92.0354 16.7384 92.9838 17.3291C92.8907 17.1425 92.7968 16.9522 92.7003 16.7565L92.6994 16.7547C92.4907 16.3317 92.2694 15.8831 92.0183 15.3949C90.4387 12.5543 89.956 10.3009 89.7952 8.72284C89.2873 9.1202 88.6439 8.92762 88.0438 8.74798C87.784 8.6702 87.5322 8.59485 87.3031 8.57085C86.106 9.03915 84.531 9.03915 83.2492 8.86027C82.4318 9.00148 81.8052 9.61624 81.3763 10.3297C81.0937 10.6541 80.745 10.8473 80.3917 11.0431C79.9404 11.2931 79.4814 11.5474 79.1423 12.085C78.7802 12.6212 78.2717 13.0079 77.7718 13.3879C76.9719 13.9962 76.1943 14.5874 76.0758 15.7473C75.8112 16.6511 76.2413 17.194 76.7072 17.7822C76.8049 17.9055 76.9041 18.0307 76.9988 18.1617C77.3806 18.465 77.2391 18.9336 77.1067 19.3721C77.0638 19.5142 77.0217 19.6533 76.9988 19.7824C76.9496 19.946 76.8889 20.1183 76.8263 20.2964C76.5405 21.1088 76.2122 22.0416 76.7248 22.8098C77.0333 23.2166 76.7678 23.5478 76.4971 23.8855C76.3779 24.0342 76.2577 24.1841 76.185 24.3423L73.6005 27.1514C73.3944 27.4272 73.2479 27.6486 73.2667 27.9977C73.4344 28.3984 73.8114 28.6603 74.1889 28.9228C74.6889 29.2703 75.1901 29.6187 75.2076 30.2911C74.9282 30.7818 75.1992 31.1542 75.4758 31.5343C75.6493 31.7728 75.8249 32.0142 75.8684 32.2898C75.5109 32.6341 75.4892 33.0944 75.4668 33.5705C75.4513 33.8997 75.4354 34.2364 75.308 34.5476C75.308 35.1794 75.2076 35.7938 75.073 36.366L74.9998 36.4305C74.6985 37.4487 74.4024 38.4108 74.0771 39.3829L72.4135 44.0091L70.888 48.1345C70.2839 48.7874 69.4498 49.1065 68.6148 49.4259C68.2217 49.5763 67.8284 49.7267 67.4589 49.9121L63.7303 51.3083C61.9272 52.0336 59.6544 52.2173 58.0333 50.879C56.0346 50.5335 54.3201 51.6451 52.745 52.6769C52.363 52.8844 52.1254 52.6352 51.8815 52.3795C51.6688 52.1564 51.4513 51.9284 51.1292 51.9942C50.0635 53.0141 49.2462 54.3796 48.7814 55.7552C48.6227 56.4452 48.8901 56.9971 49.1663 57.5671C49.483 58.2207 49.8113 58.8981 49.522 59.8349C49.4864 60.4066 49.8288 60.8965 50.1632 61.3748C50.6275 62.039 51.0762 62.6809 50.4753 63.4885L42.075 77.6135C41.0585 79.1474 40.2429 80.3786 39.2502 81.8801C39.2502 81.8801 37.4181 84.5926 36.2246 86.0449C35.0481 87.4989 32.3854 90.4119 32.3854 90.4119C32.1325 90.617 31.9169 90.8162 31.692 91.0239C31.5098 91.1922 31.3208 91.3669 31.1015 91.5543L27.9075 94.0778L25.052 96.0427L21.8308 98.1655L16.3347 101.186C16.3347 101.186 14.3408 102.404 12.6503 103.142C11.0415 103.83 7.3397 105.049 7.3397 105.049C6.75252 105.124 6.16148 105.412 5.60845 105.764C5.27615 106.554 5.71549 107.159 6.27236 107.724C6.73081 108.053 7.3809 108.11 8.003 108.165C8.4412 108.204 8.8655 108.241 9.199 108.371C9.0439 108.612 8.7316 108.775 8.451 108.921L8.4489 108.922L8.4467 108.923C8.3995 108.948 8.3532 108.972 8.3087 108.996C7.9018 109.173 7.294 109.633 7.6445 110.227C8.0448 110.954 8.4583 111.385 9.216 111.644C10.4197 111.717 11.5558 111.98 12.6721 112.239H12.6732C12.9303 112.299 13.1864 112.358 13.4419 112.415C15.3865 113.113 17.7259 112.967 19.7588 112.701L23.6203 111.941C25.4283 111.429 27.8768 111.461 29.6339 111.506L34.0878 111.812C34.5041 111.838 34.9167 111.875 35.3251 111.913H35.3263C36.985 112.065 38.5748 112.21 40.0693 111.506C42.2593 110.324 41.6222 106.908 41.3328 105.356C41.2868 105.109 41.2496 104.91 41.2339 104.774C40.3162 100.823 42.2043 98.9609 44.1964 97.0881L51.996 89.6051L56.2864 85.5204C58.798 82.9443 61.105 80.2151 62.2986 77.0346C62.3258 77.0274 62.3513 77.0201 62.3755 77.0133L62.3765 77.013C62.6246 76.9425 62.7278 76.9132 63.0238 77.3394L69.7167 90.1856L70.7537 91.987L72.7643 95.6507L76.3415 101.535L79.1185 105.904C79.1185 105.904 81.0562 108.628 82.0197 109.532C82.9612 110.416 83.3768 110.78 84.8633 111.941C86.4593 112.764 90.3387 112.755 93.6231 112.748C94.4306 112.746 95.2032 112.745 95.896 112.755C95.896 112.755 100.127 112.755 101.593 112.52C103.023 112.384 104.249 111.237 105.134 109.976C105.943 108.687 107.018 107.43 108.121 106.142C109.552 104.471 111.028 102.746 112.03 100.823C112.676 99.4884 113.456 98.2073 114.238 96.923C115.775 94.3972 117.32 91.8587 117.872 88.8745C118.034 88.3858 118.13 87.8714 118.225 87.3576C118.387 86.4825 118.549 85.609 119.041 84.8667C119.782 85.55 120.042 86.6099 120.3 87.6674C120.415 88.1382 120.53 88.6084 120.688 89.0447L121.987 92.5589C122.193 93.0861 122.416 93.6101 122.64 94.1339C123.108 95.2272 123.575 96.3196 123.875 97.4385L124.464 101.387C124.638 103.517 125.057 105.557 125.682 107.501C126.608 109.977 128.583 112.755 131.547 112.886L139.033 112.936C139.033 112.936 143.951 113.092 146.569 112.726C149.239 112.277 150.821 111.298 152.62 109.874C152.62 109.874 155.011 107.913 156.148 106.788C157.291 105.628 159.785 102.618 159.785 102.618L164.552 95.9541C165.083 95.105 165.565 94.3032 166.04 93.5133C166.527 92.7036 167.007 91.9058 167.523 91.0828C168.412 89.6525 169.217 88.1629 170.02 86.6773C170.457 85.8694 170.893 85.0626 171.342 84.2672L173.859 79.8695L174.522 79.1184C174.543 79.1135 174.561 79.108 174.579 79.1024C174.594 79.0977 174.607 79.093 174.621 79.0885C174.758 79.0416 174.834 79.0158 175.042 79.3161C176.133 81.9993 177.618 84.4614 179.685 86.7632L182.482 89.3512C183.967 90.6947 185.503 91.8848 187.181 92.9197L192.855 97.2481C192.855 97.2481 195.027 99.3253 195.987 100.309C196.953 101.263 197.905 102.696 197.905 102.696C198.541 103.845 198.37 105.141 198.203 106.404C197.993 107.991 197.79 109.527 199.207 110.658C200.632 111.468 202.823 111.353 205.197 111.229C207.293 111.119 209.531 111.001 211.512 111.506L215.152 111.812L221.44 111.941C222.162 111.836 222.892 111.812 223.61 111.788C225.377 111.729 227.064 111.673 228.342 110.416C228.563 108.972 227.486 108.884 226.383 108.794C225.797 108.747 225.203 108.698 224.792 108.446L221.167 106.72L217.694 104.484C217.267 104.183 216.846 103.867 216.428 103.551C215.569 102.904 214.718 102.262 213.829 101.777L210.107 99.9041C210.107 99.9041 207.911 98.397 206.981 97.6616C206.064 96.9618 204.094 94.9118 204.094 94.9118L201.676 92.1163L197.905 87.2587L194.276 82.1357L190.154 76.0642L187.725 72.5312L183.524 67.2241L183.277 66.5703C184.078 64.2037 184.895 61.7384 184.585 58.9799C184.265 57.802 183.49 56.9575 182.35 56.4822C181.873 56.3326 181.256 56.3326 180.972 56.8041C180.943 58.5949 179.572 58.5147 178.18 58.4333C177.455 58.3909 176.724 58.3481 176.174 58.5699C175.141 58.7279 174.225 59.2793 173.312 59.8282C172.642 60.2314 171.974 60.6332 171.264 60.8768L167.608 59.6219C167.449 59.5507 167.278 59.4945 167.105 59.4376C166.682 59.2984 166.247 59.1551 165.94 58.7791C165.753 58.2419 165.586 57.7004 165.421 57.1614C164.977 55.7186 164.538 54.2933 163.735 53.0141L160.396 47.0378L157.548 42.4598L155.419 39.1479C155.267 38.8567 155.106 38.5665 154.944 38.2746C154.316 37.1434 153.675 35.9876 153.5 34.6532C154.868 33.8759 154.474 32.8562 154.068 31.8048C153.878 31.313 153.685 30.8142 153.669 30.3301V30.2095C153.669 30.2095 153.631 30.1411 153.631 30.0937C152.684 29.7706 152.854 29.1951 153.03 28.5954C153.193 28.0444 153.361 27.4729 152.675 27.058C152.413 26.4927 152.682 26.0693 152.961 25.6278C153.188 25.2701 153.422 24.9005 153.388 24.434C152.965 23.8206 152.242 23.5907 151.537 23.3665C150.512 23.0407 149.525 22.7269 149.552 21.2654C149.408 20.2881 148.776 19.563 148.147 18.8415C147.41 17.9955 146.677 17.1545 146.74 15.9175C146.705 14.0549 144.912 13.1233 143.427 12.3515C143.18 12.2232 142.942 12.0993 142.721 11.9762C141.921 11.7157 141.083 11.8144 140.44 12.1753C139.871 12.3908 139.332 12.1849 138.76 11.9669C138.337 11.8055 137.897 11.6376 137.415 11.6291C137.393 13.0796 137.274 15.6801 135.212 19.4474L135.191 19.4859C135.107 19.6369 135.003 19.8245 134.911 20.0112C135.575 19.7811 136.287 19.657 136.968 19.657C140.603 19.657 143.577 22.6247 143.577 26.2204C143.577 29.8981 140.603 32.8352 136.968 32.8352C133.358 32.8352 130.416 29.8982 130.416 26.2205C130.416 25.1036 130.721 24.0362 131.286 23.0299C131.548 21.6679 132.102 20.2665 132.824 19.2535C133.821 17.8206 133.911 15.3317 133.901 13.1758C133.668 13.2231 133.451 13.31 133.267 13.4794C132.851 13.6914 132.467 13.5219 132.096 13.3582C132.002 13.3167 131.909 13.2757 131.816 13.2413C130.181 12.9822 128.656 13.7451 127.58 14.9234C127.238 15.8621 126.721 16.7133 126.203 17.5655C125.661 18.457 125.119 19.3496 124.776 20.3445C124.913 21.6186 124.555 23.0699 124.261 24.2627C124.028 25.2059 123.835 25.9875 123.959 26.392C124.762 27.5374 125.16 28.8736 125.56 30.2187C126.047 31.8532 126.538 33.5007 127.764 34.8353C127.795 34.9183 127.831 35.0053 127.867 35.0953C128.145 35.7855 128.494 36.6516 127.903 37.2751C127.549 37.5741 126.946 37.775 126.452 37.9397C125.989 38.0939 125.621 38.2164 125.642 38.3581C125.621 38.9015 125.993 39.2413 126.359 39.5758C126.738 39.9226 127.111 40.2637 127.033 40.8199C126.934 41.3922 126.307 41.7426 125.846 42.0007C125.593 42.1418 125.39 42.2554 125.35 42.3625C125.35 42.922 125.706 43.3202 126.046 43.6998C126.107 43.7686 126.168 43.8367 126.226 43.9051C126.43 44.6947 126.079 45.3201 125.733 45.9361C125.639 46.1039 125.546 46.271 125.464 46.4405L123.199 49.8455L121.173 52.8457L119.4 56.3326L118.102 60.1669L117.803 60.533C117.587 60.625 117.478 60.4955 117.372 60.369C117.325 60.3134 117.279 60.2583 117.225 60.223L115.149 56.1401L112.726 51.9279C112.554 51.6311 112.381 51.3348 112.207 51.0386L112.206 51.0367C111.28 49.4575 110.356 47.8807 109.691 46.241C108.39 43.7109 106.069 41.2251 103.753 39.5771C103.582 39.2365 103.753 38.9164 103.977 38.712C103.994 38.4747 104.17 38.2779 104.349 38.0786C104.595 37.8047 104.845 37.5263 104.69 37.1321C104.525 36.945 104.296 36.8519 104.069 36.7594C103.961 36.7155 103.854 36.6717 103.753 36.6181C103.721 36.5817 103.677 36.5503 103.632 36.5181C103.527 36.4434 103.418 36.365 103.44 36.2126C103.39 35.9367 103.585 35.7943 103.792 35.643C103.961 35.5199 104.137 35.3909 104.196 35.1794C104.356 34.5084 104.009 34.5644 103.605 34.6294C103.295 34.6795 102.951 34.7348 102.78 34.4691C102.649 34.132 102.821 33.9112 103.001 33.6817C103.122 33.5264 103.246 33.3671 103.282 33.165C103.47 32.7107 103.154 32.462 102.844 32.2177C102.708 32.1104 102.573 32.004 102.482 31.8814C102.392 31.6861 102.277 31.5018 102.16 31.3153C101.915 30.9261 101.665 30.527 101.634 29.9964C101.68 29.828 101.845 29.6442 102.039 29.714C102.309 29.6754 102.43 29.8554 102.553 30.0393C102.653 30.1883 102.755 30.34 102.94 30.3796C103.051 30.0549 102.97 29.7426 102.884 29.4143C102.844 29.2572 102.802 29.0965 102.78 28.929C102.828 28.1709 102.784 27.3535 102.741 26.5399C102.699 25.742 102.657 24.947 102.701 24.2161C103.113 23.6962 102.9 23.2795 102.675 22.8413C102.477 22.4558 102.271 22.0536 102.475 21.55C102.892 20.8965 102.679 20.2458 102.463 19.5852C102.335 19.194 102.206 18.7993 102.206 18.3985C102.717 16.7401 102.104 15.0032 101.453 13.5833C101.086 13.1962 100.769 12.7644 100.454 12.3349C99.905 11.5877 99.362 10.8475 98.564 10.3621C98.076 10.4583 97.771 10.1914 97.457 9.91636C97.265 9.74896 97.071 9.57853 96.8291 9.48513C96.5193 9.2176 96.1323 9.27314 95.7555 9.3272C95.4511 9.37088 95.1534 9.4136 94.9085 9.28427L94.1832 8.65767C93.6973 8.27643 93.0715 8.10075 92.421 8.06746C92.36 10.6566 92.329 13.8952 93.6069 15.7457C94.4243 16.8423 94.9229 18.3284 95.1715 19.604C95.7214 20.5779 96.0638 21.6675 96.0638 22.8081C96.0638 26.3902 93.1899 29.2475 89.6653 29.2475C86.1428 29.2475 83.25 26.3903 83.25 22.8081ZM132.532 7.82024C131.896 7.78183 130.717 7.73597 129.863 7.8522C126.744 8.29504 123.511 10.9835 122.957 12.1345C122.431 13.2192 121.811 14.3325 121.237 15.365C120.236 17.1636 119.371 18.7177 119.371 19.4487C119.371 19.5682 119.374 19.7384 119.377 19.9298C119.383 20.3932 119.392 20.98 119.371 21.2654C119.2 22.2639 119.031 22.9835 118.826 23.8556C118.751 24.1717 118.672 24.5084 118.587 24.8852L118.524 25.1628C118.634 25.4505 118.582 26.166 118.547 26.6521C118.534 26.8273 118.524 26.9731 118.524 27.0579C118.549 27.4579 119.937 31.032 120.775 33.1901C121.074 33.9615 121.304 34.5519 121.375 34.7519C121.514 35.0915 120.986 35.3624 120.502 35.6105C120.159 35.7866 119.838 35.9512 119.794 36.1209C119.69 36.5756 120.114 37.403 120.486 38.1284C120.803 38.7446 121.081 39.2872 120.965 39.4648C120.713 39.967 120.044 40.5664 119.618 40.9478C119.489 41.0628 119.383 41.1584 119.317 41.225C118.861 41.7052 120.298 44.3511 120.298 44.3511L117.279 48.904C116.532 48.3318 114.311 43.207 114.311 43.207C112.81 40.7103 112.467 40.4972 112.37 40.437L112.362 40.4318C111.381 39.1001 110.774 38.5276 110.425 38.1982C110.133 37.9228 110.021 37.8172 110.021 37.5798C110.021 37.2228 110.118 36.972 110.209 36.7396C110.287 36.5387 110.36 36.3514 110.36 36.1209C110.34 35.8817 110.082 35.7307 109.796 35.5628C109.521 35.4009 109.218 35.2233 109.076 34.9357C108.992 34.7537 109.109 34.5805 109.231 34.4008C109.349 34.2276 109.471 34.0484 109.42 33.8495C109.344 33.4036 109.111 33.3549 108.899 33.3101C108.736 33.276 108.584 33.2441 108.522 33.0391C108.39 32.7257 108.592 32.1792 108.592 32.1792C108.622 31.9176 108.361 31.4407 108.168 31.0895C108.043 30.8604 107.947 30.6847 107.98 30.6572C107.98 30.6572 108.39 30.3796 108.39 30.1411C108.319 29.7105 108.309 29.3563 108.297 28.8915L108.295 28.8066L108.291 28.6686C108.252 27.2637 108.123 25.1628 108.123 25.1628H108.042L108.123 24.5362C108.123 24.452 108.155 24.324 108.194 24.1648C108.284 23.8092 108.412 23.2981 108.308 22.7725C108.308 22.3398 107.98 21.7372 107.98 21.7372C107.98 21.7372 108.252 20.8076 108.252 20.5796C108.252 20.3125 108.111 19.8521 107.971 19.3909C107.83 18.9284 107.688 18.4653 107.688 18.1959C107.688 17.8857 107.739 17.6971 107.783 17.5353C107.816 17.4138 107.845 17.3074 107.845 17.176C107.845 14.6406 106.953 12.1345 106.027 10.5713C105.801 10.1879 105.528 9.93843 105.281 9.71401C105.164 9.6076 105.054 9.50683 104.957 9.40006C103.476 7.44039 102.42 6.23671 100.859 5.29662C100.704 5.23925 100.483 5.09235 100.273 4.95274C100.203 4.90657 100.135 4.86103 100.071 4.81996C99.998 4.80811 99.922 4.80811 99.848 4.80811C99.775 4.80811 99.703 4.80811 99.638 4.79625C99.468 4.72186 99.296 4.63763 99.121 4.55222C98.769 4.37942 98.406 4.20181 98.024 4.09119C97.675 3.92468 97.329 3.86265 96.9837 3.80078C96.7788 3.76405 96.5742 3.72737 96.3694 3.66892L96.0629 3.54304C95.4543 3.23992 94.5978 3.026 93.8441 2.88277C93.8581 1.54917 93.6069 0.366125 93.6069 0.366125C93.6069 0.366125 93.0602 0.272327 92.2397 0.20782V1.11687H88.8378V0C87.9595 0 87.3566 0.20782 87.3566 0.551635C87.3097 1.51487 87.3543 2.2902 87.4591 2.92034C87.4238 2.9178 87.3892 2.91645 87.3557 2.91645C86.8699 2.8935 86.4581 3.06613 86.0874 3.22154C85.7992 3.34235 85.5359 3.45274 85.282 3.45274H82.7313C80.6781 3.54306 78.2261 5.73599 77.3495 6.57356L77.1434 6.63319C76.4896 7.17296 74.7971 8.57089 74.7971 8.81776C74.7971 8.90863 74.5252 9.12013 74.1433 9.41718C73.4305 9.97155 72.3346 10.824 71.9078 11.7461C70.7536 14.1298 70.573 15.1326 70.573 15.1326V16.8967C70.7068 17.4693 70.9672 17.8992 71.2317 18.3358C71.4446 18.6873 71.6601 19.0431 71.8143 19.4812C71.6806 20.0542 71.7356 20.6993 71.7656 21.0503C71.7738 21.1468 71.7802 21.221 71.7802 21.2655V21.8732C71.7802 22.057 71.3077 22.6732 70.6955 23.4716C70.4053 23.8501 70.0837 24.2695 69.7661 24.7032C69.5585 24.9776 69.3627 25.2324 69.18 25.4701L69.1794 25.4709C68.2835 26.6365 67.7058 27.3881 67.631 27.9977C67.5815 28.9291 68.099 29.8109 68.099 29.8109C68.099 29.8109 69.5192 30.8239 70.088 31.4763C70.3348 31.7469 70.4436 32.3735 70.4436 32.3735C70.3553 32.8202 70.1758 33.4735 70.064 33.8802L70.0633 33.8829L70.022 34.0332L69.9994 34.117C69.9994 34.3297 69.8069 35.7122 69.7166 35.821C69.5435 36.468 69.3555 36.8878 69.0822 37.4981C68.8017 38.1245 68.4312 38.9521 67.8947 40.4318C67.0777 42.8089 66.4884 44.4892 66.4884 44.4892C66.3796 44.5216 65.3952 44.9097 63.8631 45.5158C61.4386 46.4405 61.4079 46.4405 61.4079 46.4405C61.1552 46.4405 60.9027 46.2301 60.6274 46.0008C60.3256 45.7494 59.9965 45.4752 59.61 45.4307C58.6497 45.257 56.2559 45.4307 56.2559 45.4307L54.5888 45.7337L54.2262 45.8122C53.208 46.173 52.5713 46.4405 52.2599 46.6019C51.9984 46.7448 51.8375 46.8563 51.7194 46.9381C51.4984 47.0913 51.4278 47.1403 51.1291 47.0957C50.8048 47.067 50.6766 46.7701 50.5506 46.4782C50.4225 46.1817 50.2967 45.8903 49.9697 45.8903C49.5851 45.8903 47.8311 47.4601 47.6951 47.61C47.366 48.0818 47.1884 48.2459 46.9952 48.4244C46.6925 48.704 46.3516 49.019 45.3303 50.6067C43.6172 53.4109 43.3246 55.214 43.3246 55.214C43.3077 55.3099 43.3129 55.5545 43.3186 55.818C43.3215 55.9572 43.3246 56.1016 43.3246 56.2322C43.3246 56.9575 44.392 61.9595 44.6985 62.5589L41.5588 67.941L41.4058 68.0516C41.0751 68.6118 40.7507 69.1639 40.4306 69.7085L40.4275 69.7139C36.3019 76.7337 32.9113 82.5031 26.6082 88.2989C26.6082 88.2989 25.3975 89.3275 22.8371 91.0829C22.2547 91.5381 20.0869 92.8847 19.4055 93.308L19.4045 93.3086L19.3367 93.3507C19.2711 93.3915 19.2268 93.419 19.2085 93.4306C18.8295 93.5875 15.5674 95.409 13.5637 96.5277C12.7161 97.0011 12.0936 97.3486 12.0101 97.3911C9.0612 98.7973 6.92305 99.4965 5.33162 100.017C2.45662 100.957 1.36581 101.314 0.50212 104.201C0.36771 104.614 0.26302 104.926 0.18484 105.158C0.05694 105.539 0 105.708 0 105.764C0 107.779 1.32932 110.137 2.0756 111.46C2.32247 111.898 2.50557 112.223 2.55559 112.384C2.80073 113.093 4.6209 115.11 5.04284 115.337C6.56001 116.552 7.6444 117.168 8.3921 117.168H9.5277C9.8777 117.168 10.4647 117.323 11.2048 117.518C12.5633 117.876 14.4377 118.369 16.3092 118.292C16.3714 118.292 16.454 118.294 16.5572 118.297C16.8664 118.304 17.3601 118.317 18.039 118.292C19.8759 118.226 22.0164 117.8 23.7425 117.457C24.9762 117.212 25.9983 117.008 26.5468 117.008H30.4512C30.6979 117.008 30.7211 117.171 30.7233 117.201C30.7222 117.202 30.722 117.203 30.7221 117.204C30.7222 117.205 30.7224 117.205 30.7227 117.205C30.7231 117.206 30.7235 117.206 30.7235 117.206L30.7233 117.201C30.74 117.184 30.9567 117.131 33.1274 117.206C34.1372 117.206 34.1372 117.455 34.1372 117.455C34.1372 117.455 35.9759 117.465 38.5622 117.455C44.7853 117.335 47.0923 111.644 47.0923 107.978C47.0923 106.04 46.3056 102.977 46.3056 102.977C46.3056 102.39 48.6264 100.302 49.9837 99.081L49.9846 99.0802C50.4864 98.6288 50.8566 98.2957 50.9283 98.2015C50.9283 98.2015 51.7763 97.5784 54.0425 95.2832C54.401 94.9323 54.794 94.5658 55.208 94.1798L55.2091 94.1788L55.2101 94.1778C55.7234 93.6991 56.2694 93.19 56.8212 92.644C60.9703 88.5308 62.0855 87.2587 62.0855 87.2587L67.7758 97.7586L67.9631 98.0278C68.3818 99.0579 73.6004 107.501 75.5294 110.157C79.2123 115.337 82.4932 117.168 85.2154 117.662C86.7479 118.02 86.9931 118.068 86.9931 118.068H100.74C106.031 118.068 108.866 114.133 110.343 112.083C110.591 111.739 110.801 111.447 110.978 111.237C115.652 105.822 116.952 103.289 117.783 101.669C118.095 101.062 118.341 100.583 118.673 100.129C118.866 100.325 118.882 100.474 118.966 101.266C119.042 101.988 119.175 103.244 119.55 105.557C119.824 107.159 120.904 110.227 121.375 111.063C121.381 111.072 121.405 111.116 121.444 111.185L121.541 111.36C121.887 111.984 122.664 113.386 122.819 113.576C125.075 116.75 129.199 118.411 131.011 118.411H136.672V118.325L136.892 118.411H144.703C150.426 118.411 154.444 115.544 158.341 112.112C163.085 107.998 169.299 98.651 169.299 98.651C172.553 93.1276 174.672 89.5113 174.761 89.3513C174.925 89.5027 175.173 89.7627 175.502 90.1072C176.92 91.5912 179.836 94.6448 183.945 97.3639C184.415 97.6254 185.989 98.847 187.193 99.782C187.807 100.259 188.325 100.661 188.552 100.823C189.623 101.654 192.855 104.588 192.855 105.223C192.855 105.836 192.652 106.207 192.652 106.207V107.998C192.652 113.166 196.311 115.228 196.311 115.228C197.365 116.144 200.852 116.682 201.426 116.682H205.04L205.434 116.627H208.355C208.355 116.627 212.367 117.117 214.956 117.206C217.721 117.42 222.056 117.42 222.056 117.42C222.404 117.42 222.843 117.377 223.361 117.326C223.996 117.263 224.75 117.189 225.599 117.168C230.406 116.975 232.093 114.683 232.932 113.29C232.992 113.188 233.049 113.09 233.104 112.997L233.107 112.992C233.695 111.991 234 111.471 234 110.353C234 109.371 233.419 107.978 233.362 107.841C233.362 107.841 232.599 106.098 230.886 105.124C229.761 104.461 229.134 104.255 228.422 104.022C227.202 103.621 225.732 103.139 221.07 100.129C220.402 99.7064 219.765 99.2549 219.095 98.779L219.094 98.7788C218.245 98.1763 217.341 97.5345 216.245 96.8631C216.139 96.8039 215.966 96.7215 215.738 96.6124C213.995 95.7807 208.994 93.3944 205.256 87.8257L205.04 87.5941C204.746 87.3968 203.339 85.4249 202.34 83.9949C201.725 83.1336 201.41 82.7041 201.159 82.3612C200.556 81.5371 200.318 81.2122 197.147 76.5918C196.771 76.0401 193.944 71.9844 193.295 71.203C193.073 70.7961 192.105 69.257 191.389 68.3682C189.977 66.647 189.187 65.6048 189.187 65.6048C189.187 65.5936 189.213 65.4978 189.254 65.3402L189.255 65.3394V65.3383C189.45 64.6053 189.996 62.5473 189.996 61.442C189.996 61.442 190.231 59.4876 189.996 58.3261C189.679 56.7326 189.32 55.728 188.295 54.4646C187.769 53.7972 186.917 52.9632 186.917 52.9632C186.811 52.8837 186.708 52.8064 186.608 52.731C185.241 51.7019 184.388 51.0601 182.741 50.9285C182.217 50.8965 182.008 50.9231 181.614 50.9731C181.4 51.0003 181.131 51.0344 180.728 51.0698C178.916 51.2944 177.869 52.1697 177.275 52.6659C177.027 52.873 176.858 53.0141 176.746 53.0141H176.028C174.672 53.0141 170.78 55.0487 170.78 55.0487C170.526 55.0487 170.473 54.9221 170.151 54.1564C169.905 53.5693 169.501 52.6063 168.728 51.0373C168.163 49.7542 166.995 47.7394 166.567 47.0015L166.561 46.9914L166.558 46.9854C166.513 46.9074 166.476 46.8447 166.45 46.7996C164.952 44.3081 164.116 42.9413 163.36 41.7065L163.359 41.7052C162.677 40.5913 162.061 39.5846 161.084 37.9561C160.868 37.5709 160.614 37.1568 160.375 36.7667L160.374 36.7665C159.93 36.0429 159.536 35.4016 159.536 35.1794C159.536 35.1794 160.003 33.9924 159.894 33.0391C159.844 32.4735 159.577 31.951 159.321 31.4478C159.019 30.856 158.731 30.2909 158.824 29.714C158.933 29.2492 158.55 28.769 158.55 28.769C158.803 28.0052 158.518 27.7325 158.238 27.4646C158.027 27.2619 157.818 27.062 157.847 26.6542C157.893 26.3902 158.132 25.9396 158.413 25.4106C159.113 24.0907 160.072 22.2828 158.933 21.6692C157.513 20.8076 155.824 19.8574 155.824 19.8574C155.212 19.5492 154.541 19.0097 154.457 18.9041C154.457 18.9041 153.875 17.2628 153.202 16.3468C152.75 15.7745 152.007 14.9234 152.007 14.9234C151.974 14.8143 151.942 14.6668 151.903 14.4877C151.685 13.4864 151.252 11.4984 149.239 9.73202C145.633 6.62829 142.84 6.35909 142.44 6.35909C141.448 6.35909 140.096 6.63317 140.096 6.63317C140.04 6.63317 139.883 6.58962 139.66 6.52743C139.655 6.52608 139.65 6.52471 139.645 6.52334C139.662 6.10897 139.655 5.64947 139.621 5.13872C139.621 4.48841 139.008 4.18191 137.778 4.11705L137.232 4.08984V5.21892H135.011V4.25513L134.462 4.28407C133.702 4.38625 133.188 4.41519 133.188 4.41519L132.824 4.48841L132.747 4.81863C132.713 4.96032 132.431 6.35759 132.532 7.82024ZM92.6554 71.7945C92.4247 71.1681 92.1619 70.5627 91.8999 69.9591C91.3096 68.5989 90.7234 67.2482 90.5169 65.6892L89.6009 59.2209C89.4631 58.8189 89.0307 58.9315 88.6799 59.0574L85.2816 61.1994L81.7538 63.0534L78.2257 64.7833V65.2411L83.3149 72.5627C83.6872 73.1313 84.0268 73.7018 84.3664 74.2724C84.8359 75.0611 85.306 75.8508 85.8621 76.6351L89.991 83.5971C90.1985 84.0738 90.6905 84.7363 91.3904 84.5916C92.3472 83.2728 92.2478 81.5094 92.1538 79.8417L92.1428 79.6454L92.2112 74.6294C92.4769 73.7169 92.7356 72.7293 92.6554 71.7945ZM160.949 67.7713C160.237 67.5584 159.512 67.3758 158.783 67.1919C158.217 67.0492 157.647 66.9056 157.077 66.7464L151.162 64.5176C150.762 64.3732 150.37 64.2017 149.978 64.0297C149.153 63.6683 148.322 63.3045 147.395 63.1845C147.145 63.6586 147.325 64.1069 147.512 64.5718C147.606 64.8049 147.702 65.0422 147.745 65.2889C147.993 65.9424 148.297 66.5772 148.602 67.2138C149.278 68.6271 149.959 70.0494 150.042 71.7045C149.64 73.2402 147.916 74.1799 146.625 74.7298C146.275 74.9254 145.902 75.0663 145.535 75.2045C144.865 75.4575 144.218 75.7016 143.78 76.2554C143.657 77.8337 143.251 79.2963 142.778 81.0055L142.716 81.2278L142.627 81.5506C142.282 82.732 143.123 83.5764 143.878 84.3356C144.014 84.4714 144.146 84.6045 144.269 84.7363C144.704 84.9302 145.293 84.9302 145.603 84.4605L151.918 77.9988L154.556 75.2832L157.001 72.6833L161.046 68.2685C161.034 68.2225 161.035 68.1695 161.035 68.1129C161.037 68.0042 161.039 67.8823 160.949 67.7713ZM80.8127 43.7106L84.6061 41.9912L85.459 41.39C85.6326 40.8054 85.3287 40.3659 84.8804 39.7177C84.7477 39.5257 84.6024 39.3155 84.453 39.0778L83.7905 38.6336C83.7034 38.6002 83.6098 38.5617 83.5114 38.5212C82.7965 38.227 81.8319 37.8299 81.32 38.5722C81.2059 39.3164 81.0128 40.0001 80.8217 40.6772C80.5685 41.574 80.3185 42.4594 80.2593 43.4588C80.2765 43.7162 80.5501 43.7133 80.7581 43.711C80.7769 43.7108 80.7952 43.7106 80.8127 43.7106ZM154.219 52.3158L149.241 49.0945L144.657 46.1728C143.853 45.397 144.44 44.5033 144.98 43.6821C145.212 43.328 145.436 42.9875 145.536 42.6757C145.637 42.4314 145.725 42.1672 145.814 41.8978C146.122 40.9729 146.451 39.987 147.395 39.5361C148.291 39.421 148.882 40.1685 149.408 40.8353C149.583 41.0572 149.752 41.2704 149.922 41.4396C151.736 44.7714 153.43 48.2399 154.786 51.7983C154.871 52.1592 154.542 52.6017 154.219 52.3158Z" fill="black" style="fill:black;fill:black;fill-opacity:1;"/>
<path fill-rule="evenodd" clip-rule="evenodd" d="M233.81 129.88H0V142.932H233.81V129.88ZM38.5117 154.147H0V202.502H13.3432V185.28H36.0909V174.093H13.3432V165.895H38.5117V154.147ZM43.3165 154.147V181.304C43.3165 196.44 51.9084 203.413 65.6038 203.413C79.2427 203.413 88.151 196.586 88.151 180.955V154.147H74.6132V181.365C74.6132 188.135 71.0902 191.3 65.7462 191.3C60.3638 191.3 56.8708 188.025 56.8708 181.035V154.147H43.3165ZM107.374 165.895H92.9199V154.147H135.152V165.895H120.699V202.502H107.374V165.895ZM139.951 154.147V181.304C139.951 196.44 148.484 203.413 162.187 203.413C175.88 203.413 184.777 196.586 184.777 180.955V154.147H171.208V181.365C171.208 188.135 167.7 191.3 162.362 191.3C156.971 191.3 153.456 188.025 153.456 181.035V154.147H139.951ZM189.521 154.147H212.29C219.621 154.147 224.754 156.075 227.986 159.406C230.802 162.176 232.263 165.895 232.263 170.66V170.823C232.263 178.214 228.317 183.076 222.348 185.707L233.808 202.502H218.4L208.714 187.875H202.857V202.502H189.521V154.147ZM211.681 177.391C216.226 177.391 218.844 175.163 218.844 171.65V171.481C218.844 167.662 216.091 165.767 211.623 165.767H202.857V177.391H211.681ZM66.5847 262.256L61.2988 268.554C65.4991 272.335 71.2514 274.193 77.2293 274.193C85.4591 274.193 90.9841 270.068 90.9841 263.112V263.002C90.9841 256.599 86.1109 254.087 78.3015 252.342C73.6023 251.271 72.4277 250.612 72.4277 249.07V248.987C72.4277 247.743 73.5637 246.795 75.8392 246.795C78.8512 246.795 82.2567 247.93 85.3742 250.126L90.0512 243.441C86.3618 240.478 81.8512 238.923 76.0887 238.923C67.9572 238.923 62.9119 243.493 62.9119 249.841V249.923C62.9119 256.957 68.5065 259.021 75.7382 260.686C80.3544 261.714 81.4564 262.51 81.4564 263.911V264.006C81.4564 265.494 80.1135 266.376 77.5977 266.376C73.647 266.376 69.8835 264.94 66.5847 262.256ZM0 239.511H27.2242V247.767H9.4282V253.57H25.467V261.418H9.4282V273.612H0V239.511ZM30.4141 239.511H57.8105V247.555H39.8036V252.709H56.1086V260.155H39.8036V265.591H58.0499V273.612H30.4141V239.511ZM103.534 247.767H93.3496V239.511H123.158V247.767H112.98V273.612H103.534V247.767ZM135.897 239.511H126.427V273.612H135.897V239.511ZM139.17 239.511H149.705L157.454 261.107L165.159 239.511H175.469L161.716 273.854H152.947L139.17 239.511ZM190.186 239.273H181.125L166.654 273.612H176.559L178.992 267.514H192.122L194.572 273.612H204.657L190.186 239.273ZM185.609 250.469L189.416 260.156H181.75L185.609 250.469ZM207.978 239.511H217.349V265.351H233.811V273.612H207.978V239.511ZM0 213.738H233.81V226.784H0V213.738Z" fill="black" style="fill:black;fill:black;fill-opacity:1;"/>
<path d="M83.2578 22.7711C83.2578 19.2456 86.1459 16.3186 89.6627 16.3186C90.8731 16.3186 92.0289 16.7113 92.9758 17.301C92.6817 16.7113 92.3791 16.0839 92.0119 15.3699C89.333 10.5525 89.8141 7.42664 89.6627 6.42368C89.4977 5.46842 87.106 5.72498 87.3577 0.550741C87.3577 0.207483 87.9597 0 88.8366 0V1.11505H92.2329V0.207483C93.0521 0.271885 93.598 0.365531 93.598 0.365531C93.598 0.365531 94.6127 5.14535 92.4453 6.31332C92.4453 8.98522 92.0119 13.4235 93.598 15.7201C94.414 16.815 94.9118 18.2987 95.16 19.5722C95.709 20.5445 96.0509 21.6324 96.0509 22.7711C96.0509 26.3474 93.1816 29.2 89.6627 29.2C86.1459 29.2 83.2578 26.3475 83.2578 22.7711Z" fill="#C52934" style="fill:#C52934;fill:color(display-p3 0.7725 0.1608 0.2039);fill-opacity:1;"/>
<path d="M136.918 33C133.277 33 130.309 30.0369 130.309 26.3267C130.309 25.1999 130.616 24.1231 131.186 23.1078C131.451 21.7338 132.009 20.32 132.738 19.298C133.931 17.5838 133.837 14.3717 133.813 11.9978C133.772 11.6094 133.772 11.1972 133.772 10.8264C131.722 9.37316 132.598 4.99311 132.66 4.73524L132.738 4.40209L133.105 4.32822C133.105 4.32822 133.624 4.29903 134.39 4.19595L134.945 4.16675V5.13908H137.185V4L137.736 4.02745C138.976 4.09288 139.595 4.40209 139.595 5.05817C139.85 8.81134 138.598 9.82132 137.81 10.4774C137.623 10.6047 137.461 10.706 137.461 10.8264C137.404 10.9773 137.37 11.1971 137.37 11.5236C137.351 12.9698 137.267 15.6205 135.147 19.4936C135.06 19.6519 134.945 19.8577 134.843 20.0624C135.513 19.8302 136.231 19.705 136.918 19.705C140.586 19.705 143.586 22.699 143.586 26.3266C143.586 30.0369 140.586 33 136.918 33Z" fill="#C52934" style="fill:#C52934;fill:color(display-p3 0.7725 0.1608 0.2039);fill-opacity:1;"/>
</g>
<defs>
<clipPath id="clip0_173_447">
<rect width="234" height="275" fill="white" style="fill:white;fill:white;fill-opacity:1;"/>
</clipPath>
</defs>
</svg>
